<svg
        id="visual"
        viewBox="0 0 900 600"
        xmlns="http://www.w3.org/2000/svg"
        xmlns:xlink="http://www.w3.org/1999/xlink"
        version="1.1"
      >
        <path
          d="M0 111L21.5 105.5C43 100 86 89 128.8 102C171.7 115 214.3 152 257.2 156.5C300 161 343 133 385.8 116.5C428.7 100 471.3 95 514.2 91.8C557 88.7 600 87.3 642.8 88C685.7 88.7 728.3 91.3 771.2 101.5C814 111.7 857 129.3 878.5 138.2L900 147L900 0L878.5 0C857 0 814 0 771.2 0C728.3 0 685.7 0 642.8 0C600 0 557 0 514.2 0C471.3 0 428.7 0 385.8 0C343 0 300 0 257.2 0C214.3 0 171.7 0 128.8 0C86 0 43 0 21.5 0L0 0Z"
          fill="#00bfa6"
          stroke-linecap="round"
          stroke-linejoin="miter"
        ></path>
      </svg>